/* XPM */
static char *d2b68e51ac33417680e530c4e9a076a9uhezPwzlj4vdzqEJ[] = {
/* columns rows colors chars-per-pixel */
"64 64 256 2 ",
"   c #030203",
".  c #0B0203",
"X  c #05050C",
"o  c #0A060C",
"O  c #0A090E",
"+  c #06080B",
"@  c #13090A",
"#  c #050512",
"$  c #0B0B13",
"%  c #0B0C1B",
"&  c #060917",
"*  c #160E15",
"=  c #13121A",
"-  c #1B131C",
";  c #181417",
":  c #121212",
">  c #280A05",
",  c #27181A",
"<  c #351B1B",
"1  c #28110E",
"2  c #292A1C",
"3  c #38251B",
"4  c #302F1A",
"5  c #050C27",
"6  c #091225",
"7  c #191925",
"8  c #000C36",
"9  c #031435",
"0  c #111C36",
"q  c #281B23",
"w  c #351E21",
"e  c #17243A",
"r  c #1A232C",
"t  c #292726",
"y  c #382729",
"u  c #2D322A",
"i  c #333424",
"p  c #3B3B2C",
"a  c #36382A",
"s  c #2B3437",
"d  c #373A35",
"f  c #302C36",
"g  c #461B11",
"h  c #4F2719",
"j  c #6B311B",
"k  c #452927",
"l  c #463636",
"z  c #4F342E",
"x  c #693729",
"c  c #3D432C",
"v  c #3B4239",
"b  c #47472D",
"n  c #474737",
"m  c #5A553A",
"M  c #564A34",
"N  c #764538",
"B  c #6D4F36",
"V  c #6E6339",
"C  c #07194D",
"Z  c #182946",
"A  c #152D52",
"S  c #273548",
"D  c #343C46",
"F  c #293855",
"G  c #2F3852",
"H  c #16326D",
"J  c #263C69",
"K  c #001760",
"L  c #4E3B43",
"P  c #653E41",
"I  c #3A4247",
"U  c #394658",
"Y  c #2A4251",
"T  c #3A4768",
"R  c #334B71",
"E  c #1E4669",
"W  c #474B47",
"Q  c #575748",
"!  c #484C56",
"~  c #4B5458",
"^  c #585A56",
"/  c #544A4C",
"(  c #774D46",
")  c #665946",
"_  c #775557",
"`  c #6D5050",
"'  c #777359",
"]  c #6D674F",
"[  c #4A4C6A",
"{  c #524F6D",
"}  c #475568",
"|  c #565B68",
" . c #484E76",
".. c #4B5576",
"X. c #575878",
"o. c #695867",
"O. c #665C7B",
"+. c #765D77",
"@. c #795B66",
"#. c #5B6568",
"$. c #5B6479",
"%. c #4C6466",
"&. c #676868",
"*. c #786469",
"=. c #656778",
"-. c #776876",
";. c #7A7A76",
":. c #70746F",
">. c #5D625B",
",. c #8D4F33",
"<. c #A75930",
"1. c #B66837",
"2. c #8F532C",
"3. c #C5703C",
"4. c #875549",
"5. c #885A59",
"6. c #925A4F",
"7. c #966558",
"8. c #8B6D54",
"9. c #AC7054",
"0. c #855B65",
"q. c #805D71",
"w. c #876765",
"e. c #986A66",
"r. c #987778",
"t. c #8B7471",
"y. c #A77769",
"u. c #B57A68",
"i. c #A77875",
"p. c #B57C75",
"a. c #A56A68",
"s. c #C67B58",
"d. c #CD7B45",
"f. c #CA7F60",
"g. c #8A3F20",
"h. c #7E847A",
"j. c #938E2E",
"k. c #928654",
"l. c #B1894B",
"z. c #B2AD51",
"x. c #958578",
"c. c #8C8672",
"v. c #B8886A",
"b. c #AA8779",
"n. c #B88679",
"m. c #B79679",
"M. c #AC8C6B",
"N. c #B8AF6D",
"B. c #9BA173",
"V. c #D18D55",
"C. c #E79857",
"Z. c #ED9353",
"A. c #C1BA58",
"S. c #CB9070",
"D. c #CDA879",
"F. c #E7AA76",
"G. c #E59D69",
"H. c #CAC56D",
"J. c #C8C458",
"K. c #10358A",
"L. c #2E5093",
"P. c #3B5DB5",
"I. c #3356A9",
"U. c #2654A6",
"Y. c #475785",
"T. c #4A5B93",
"R. c #645E80",
"E. c #5B6586",
"W. c #4D619C",
"Q. c #596799",
"!. c #567191",
"~. c #636283",
"^. c #676789",
"/. c #766A8A",
"(. c #6A7688",
"). c #767588",
"_. c #666A97",
"`. c #697598",
"'. c #747596",
"]. c #445DA9",
"[. c #4C63A3",
"{. c #4A64A9",
"}. c #586AA4",
"|. c #4A67B7",
" X c #5872B2",
".X c #6877A5",
"XX c #6E79AC",
"oX c #3A5DC8",
"OX c #2F5DD1",
"+X c #3C62C8",
"@X c #3C64D8",
"#X c #2E68D6",
"$X c #135FE8",
"%X c #2E5EEC",
"&X c #315EE3",
"*X c #1962EA",
"=X c #0B61F1",
"-X c #2967EA",
";X c #3665E9",
":X c #2A67F1",
">X c #3A6AF1",
",X c #3671F2",
"<X c #3371EC",
"1X c #1A64DD",
"2X c #4465C6",
"3X c #4569D8",
"4X c #5073CE",
"5X c #446CE5",
"6X c #4771E6",
"7X c #647BC1",
"8X c #877788",
"9X c #977887",
"0X c #85758F",
"qX c #A47C81",
"wX c #847EA2",
"eX c #768295",
"rX c #6F8EAE",
"tX c #5F8DA8",
"yX c #6FA1C5",
"uX c #918C8D",
"iX c #A98787",
"pX c #B78885",
"aX c #B79A87",
"sX c #B79C99",
"dX c #AA9490",
"fX c #BBA38C",
"gX c #B9A686",
"hX c #BCA797",
"jX c #ABA396",
"kX c #8F89A7",
"lX c #AD98A7",
"zX c #B9B0AE",
"xX c #C99387",
"cX c #C5A68A",
"vX c #D9A689",
"bX c #C6AA95",
"nX c #D6AA97",
"mX c #C9B19A",
"MX c #D8B496",
"NX c #E9B091",
"BX c #D8B9A6",
"VX c #CCAFA8",
"CX c #E2BAA5",
"ZX c #E29A82",
"AX c #D8C9B0",
"SX c #E9C4A7",
"DX c #F6D0B2",
"FX c #E6CC9C",
"GX c #F0D9C8",
"HX c #FCE6C8",
"JX c #FFF5D8",
"KX c #F9EBD2",
"LX c #FFFBE8",
"PX c #EFEEE1",
"IX c #DFD8C6",
"UX c #83B9D5",
/* pixels */
"yXA 9 C C K.=X=X=X=X=X1XL.H e Z E Y.T A A L.A C ..} S r 6 I ..R %.T S s u d u t Q n c c d W W ~ u u D ! D D s D I F L.P.#X-X*X<X",
"rXA 8 8 K U.*X=X=X=X=X1XU.R !.Z F R T Z T R A Z F S S 7 % U T U eXU s s v v a i a 4 2 u a u d I u u u s s W s s s Z E U.<X*X=X<X",
"tXC 9 8 K OX*X=X=X=X=X1XL.J G Z S kX..Z T E F F F S s 7 7 I I s v u u 2 p i a a 4 4 i i t t d d d d t u s s u u u S I.4X<X,X,X,X",
"Y.9 8 8 K OX*X*X=X*X*XOXJ T G 7 Y U F U S S F } F S S t u ^ ! v ~ c 2 u c c p i i i a i i c a a a a 2 u u d u t u S L.2X<X,X,X,X",
"R 9 8 8 K.OX*X*X*X*X1XOXH R Z 0 U G e ..F S $.(.S S f t u n W c t a a n n n n c c c c >.n n a i u i a 2 t u i i d d R 4X<X<X,X,X",
"E 9 5 C K.-X*X:X:X-X-X+XH A Z 0 U F e  .A Y R ..S U W u t v i i l d p p a a a p n 4 d a a a c c 2 i n W n a W n W ! R |.<X<X,X<X",
"A 9 5 8 U.:X%X:X:X>X<X+XK A C e G Z Z Z A Y A E F D d d W ~ v v I n d a i a p n m >.n t d a a 4 a i n Q ^ n a c W ^ U R I.#XyX,X",
"e 8 9 8 U.%X%X:X%X;X6XP.A Z 0 e F Z Z F Z A E Y S s r s ~ ~ I I W I d n v c n n M Q p p a t 2 4 i b / W n p a d s ~ $.Y ].6X,X,X",
"8 5 5 C oX>X%X%X:X;X3XL.H } e Z U S T e S Z E R G f f r f S 0 7 7 r f s f W / n p l a l b 4 4 4 a c ^ >.n u u n d ~ ~ } |.3X6X,X",
"9 8 5 K @X>X%X%X%X&X3XL.J E.e S S Y %.e s S Y %.~ D 7 6 6 5 6 5 & & # # & = 7 d d t 2 4 c p b z b m I I W W | | >.#.#.T T.4X6X>X",
"8 8 5 K OX%X>X%X%X&XoXK.H 9 e Z A Y Y Z e s s U S % 5 % 6 5 5 5 5 5 5 - % # # % t u n m 4 i m b n ;.| X.#.=.).`.E.(.eX^.Y.].+X;X",
"5 8 5 H @X%X%X%X%X&X|.H J Z 6 G %.s U v v U :.Y & 6 6 % % % & 5 % - D L L f y * o t l b i 4 c M Q Q #.eX| (..XT.!.^.!.Y.Y.I.+X5X",
"5 5 8 H 5X;X>X5X;X@X|.E A A U Y S %.#.v ~ ! I % % % & % 5 % % - w L @.0.P @.r.L * , i b n b c b Q n W } E.}.4X|.`.~ I ..].3X3X;X",
"8 8 8 K.@X&X;X;X<X@X[.E F S ~ I e ~ ~ v Q s $ & & & & % % % - f L ` r.0.0.r.pXqXM 1 3 l ' ) b ) m ' W S T. X4X7X`.} [ Y.2X;X;X;X",
"C 0 C L.3X&X%XOXoX|...A s e r v s v v v W ; O $ $ $ $ $ % - k / o.+.qX0.e.qXpXqXe.z g z Q Q m m m W ! Y.|. X7X X!.L.}.4X6X5X5X5X",
"C C C C U.+X+X|.I.J Z r s v u c c c c m c : $ O o o o $ * q L / L _ 0.6.qXxXxXqXi.7.k k ) ' m ] m W =..X X7XrXR  .eX X2X4X5X5X5X",
"A A 9 e A E A R E S s u u c c c c b m b 2 @ + + o o @ * , l / @._ P 4.7.qXxXpXp.p.y.j h V V m ' c.:.:.$.Q..XXX(.:.eX..R  X4X5X5X",
"R R Y Y Y Y F %.~ 6 u c c c c b b ] m z ; : . + o $ - y ` q.@.@.@.( 7.p.a.xXxXxXS.9.M h B V b m ] ] :.%.W.}..X`.(.$.(.!.rX4X5X5X",
"R R tXtXtXrX} Y U r r v v n b m V V m b l 2 + @ o q L | -.t.o.` ` g x u.p.pXnXNXu.9.j j 2.V V ' ' Q W ..|.2X|.|. XtX X.X2X3X5X3X",
"R E tXyXtX$.eX$.%.#.v c v c m m V V m M l @ + @ 7 L o.+.-.9XiXiXpXi.a.a.a.qXZXu.6.v.v.9.l.l.' h.;.&.~ $.|.3XoX+X+XP.|.2X3X@X@X@X",
"yXtXyXUXUXrX#.~ h.eX#.c Q b V ] V 8.) y , @ * , q / o.-.9XqXpXqXpXpXpXqX9XqXpXa.4.u.9.S.S.] ) uX=.(.#.Y.{.+XoXoXoXoXoXoXoX@XoXoX",
"R tXtXtX#.:.U %.eXeX>.Q Q ] ' 8.8.k.M < 2 * , q y { -.t.qXqXqXxXxXpXqX9Xq.a.pXp.v.nX2.S.m.m Q :.eXeXeX$.{.P.oX+XoX2X2X2X2X2X2XoX",
"E E $.%.~ U I U %.(.h.>.>.:.' ' gXB.i w q y l y L o.q.t.i.p.S.xXxXpXa.e.0.a.S.xXv.S.G.S.k.' Q ^ >.&.h.#.!. X+X+XoXoX2X2X2X2X2X|.",
"A s #.#.~ %.s r 6 :.uX:.>.:.c.uXAX' , w q , L l L @.r.i.a.i.p.S.p.i.a.a.p.xXNXS.u.vXCX9.8.c.Q ^ &.>.c.eX}.{.P.P.P.4X4X].]. X[.].",
"C A T | / f t s s uXeXh.;.c.uXjXjXl , y , @ . y / _ e.i.y.u.u.7.6.a.a.a.f.ZXNXs.F.DXM.8.' &.%.&.>.~ ..E.[.P.].P.|.XXXX}.}..X}.}.",
"K F [ &.uXx.dX^ W zXuXQ :.jXIXuX:.y , 3 , o . t / ` e.y.p.u.y.( 4.a.a.a.f.ZXZXf.DXcXr.uXc.:.:.uXeX$.$.!.[. X|. X}.Q.Q.`.`.'.`.XX",
"C G o.sXmXGXLXc.^ PXB.m gXAXJXmX) 3 < 2 , @ . , z ` 5.e.b.p.i.e.5.0.p.ZXNXG.a.NXS.y.8XuX:.&.=.!.%.^.| ^.`.XX.XrX`.`.`.'.).).'.'.",
"G =.t.aXSXFXAX' ' PXc.Q x.mXJXbXz < < , < @ . w z z N 8.e.y.i.i.a.a.a.9.S.CXDXf.2.n.uXeXh.:.eXeX!.E.$.#.$.`.^.E.(.(.(.).).-.).uX",
"@.x.B.m.JXJXKX] ' PX] n x.AXJX' < < , < t 1 @ k ` N N N ( w.y.i.qXp.xXZXDXDX,.g g.9.pXc.;.#.(.`.eXeXeXeX).#.).).(.).).).*.*.w.8.",
"8.gXmXFXHXJXFXm t.IXQ M c.GXaX3 2 , < , q 1 - k ` 5.8.,.N N 6.y.p.p.p.vXDXx > j 2.s.cXaXx.c.).:.=.=.=.=.&.>.&.=.-.;.uX8Xx.y.m.gX",
"BXAXgXFXFXFXH.M gXAXm m aXaX3 2 , , - @ < < y / _ e.e.8.6.4.,.8.u.xXvXCX5.> g j 3.C.NXMXBXBXAXhXhXjXjXdXuXiXc.t.x.r.t.x.x.m.GXJX",
"z.N.N.N.J.A.z.k.AXgXb jXmXi , ; ; * o ; q l P ` 0.e.y.9.9.9.9.9.4.h x g 1 < h g.Z.C.F.D.MXmXmXcXmXbXmXmXhXmXmXzXhXhXbXiXM.AXLXLX",
"z.A.z.z.z.H.H.H.N.V M *.l @ * : : o $ , , l ` _ w.e.y.y.y.9.9.7.x @ > 1 k g x ,.Z.G.NXNXbXbXbXhXcXcXgXbXhXfXhXbXhXmXmXaXm.DXLXLX",
"z.z.z.z.j.j.j.j.k.) 2 - - t q - ; ; - - * t _ *.w.t.y.y.y.y.9.4.k > w w y h j <.C.C.V.S.MXcXcXcXgXhXgXhXfXfXfXfXfXbXbXm.cXHXLXPX",
"A.J.J.J.J.J.H.N.) u t t t t t f t , , = * @ t o.-.t.r.i.u.y.a.8.< 1 q y k g j 9.C.C.s.x v.cXcXfXcXhXgXhXfXfXfXfXhXbXcXM.bXJXLXIX",
"z.z.z.A.J.H.z.b ; = 6 : $ O O o @ $ o $ $ o o * f o.t.r.b.r.w.z 1 q , w k g 4.f.s.V.u.N 4.M.cXcXgXfXgXgXfXfXfXfXfXbXxXb.BXLXLXBX",
"z.z.z.z.N.8.:   : & & & + # O + o $ X + O $ $ $ o * q l / / y ; - q - , y x x 7.6.6.x ` _ 5.e.xXcXm.cXfXfXfXaXfXaXcXm.m.DXLXJXmX",
"j.z.j.z.j.: + : & & & + & + # + X $ O + O $ # $ * $ $ & $ * - ; - - - w k k h _ x k l z z M z ( MXMXm.m.aXfXgXaXaXcXm.xXHXLXHXcX",
"z.z.N.z.2   + & & & & & & + & + o # # X $ $ $ % $ % = = = = = = * , q w w k z k l k l f l l l _ m.SXFXD.m.gXaXfXfXcXM.cXPXLXDXm.",
"z.A.N.i   + & & & & % = = : + + $ $ X $ $ O $ $ $ $ : % : % : @ = q f q q f y q y y k k y z / 0.5.y.vXSXcXM.m.fXfXaXn.MXLXLXSXD.",
"z.H.V + + + + & & % = 7 ; ; + $ $ : + + + $ + $ $ $ % = $ % % : ; t - q q q f q q y L k z _ _ 5.@.5._ n.CXD.8.k.b.M.v.FXLXLXBXm.",
"H.k.+ & & & # X % = 7 t t : : : + + + X $ + + $ O $ @ $ $ $ $ ; - 7 = - 7 q q q q k P N 4.6.4.5.0.5.0.5.y.DXBXy.8.M.m.DXLXLXMXv.",
"B.c %.T.Y.Y.J e & % q q t : + + X + $ X $ X # $ $ O # $ $ # $ % - - - 7 - q - q q w 6.a.<.7.6.,.4.( 0.` ( r.nXGXMXM.m.HXLXPXD.v.",
":.%.tX{. X}.XXkXuXl ; t ; : : + X + $ X X # X X # # O # $ X % ; % - - - - q - q q < ,.f.s.V.s.9.6.4.4.P _ w.0.i.BXDXSXKXLXDXS.M.",
"^.Q.}.{.[.Q.'.lXVXAXo., :   X     $ O X X X $ X # # # # o $ $ % * = - - * - - , q g j 9.f.f.C.V.d.9.,.N 4.6.5.0.e.S.DXHXJXSXv.l.",
"W.Q.[.}.[.}.kXlXVXCXBXk       X   O O O $ & & # X X   X * $ * * $ $ * - - - q - < w j <.1.3.3.Z.d.V.d.9.9.6.6.5.5.9.v.vXDXFXcX9.",
"[.[.[.[.}._.kXzXVXnXSXM         X + X   X # & 6 q q , @ . . & % % % * - - - < - < g g.3.d.d.d.Z.G.C.f.f.d.s.9.6.7.7.7.a.i.S.MXvX",
"Q.[.].W.}.XXlXzXnXCXbX>           X X 6 G [ X.^.).kXkXuX8Xo.y * o @ @ ; , < < 1 < j ,.s.Z.d.Z.Z.V.V.C.Z.f.s.s.s.u.9.7.7.7.8.9.vX",
"[.[.[.W..XwXlXVXnXCX' . .       X e [ _._.Q.Q.Q.Q.Q._.0XwXVXIX9Xy . * * 1 , < > h j 1.Z.Z.C.C.l.l.V.l.l.l.V.S.V.s.f.9.6.6.6.6.e.",
"[.[.W.Q.wXlXVXVXCXnX1       X 7 X.`..XQ.}.}.}.}.Q._._._./.0XqXGXDX_ . 1 * 1 z h g 2.3.Z.Z.C.C.l.l.j.l.l.l.9.V.V.S.f.u.9.6.4.4.7.",
"[.[.W._.wXlXVXnXCXe.. .   X ! '.`.`._.}.}.Q.}.}._.}._._._.0X9XwXBXKXb.@ > 1 g N h j 3.Z.Z.Z.V.V.j.l.l.V.z.V.S.S.ZXvXNXCXBXnXaXy.",
"].W.W.XXkXsXnXCXCXg .   X | '._._.`.}._._.}.}.`.}.}._..X_._./.0XlXVXKXsX> > > g h j d.Z.Z.Z.C.V.V.V.l.l.v.V.v.a.e.r.b.dXbXAXGXGX",
"W.W._.wXlXVXNXSXm..   & =.(.^.^._.Q._.Q.Q.Q.Q._._._._._./._.0X/.8XdXBXKXfX> > g j j 3.Z.Z.Z.C.V.D.F.v.9.8.` ` _ ` o.o.o.X.o.+.8X",
"W.W.'.wXlXVXCXDX) . . o./.E.^.^._.^.^.Q._._.Q._._._._.^._./._././.8XdXBXHXm.h j j g.1.Z.Z.Z.3.G.S.u.4.( ` _ @.+.R.+.+.O.R.O.O.X.",
"W.Q.wXdXbXnXCXCX1   ~ ).~.=.E.^._.E.Q.R._.R._._._.^./._./._./././.8X9XdXCXHXv.<.<.g.1.Z.Z.Z.V.s.,.N ( ( 5.0.@.+.+.R.R.R.R.R.R.R.",
"Q._.wXlXsXCXCXpX. f 8X=.E.E.^.E.E.R.R.R.Q.^.R._./._._././.0X0X0X8X9X9Xi.D.FXDXC.<.g.3.3.V.G.1.N N 4._ 5.0.0.0.q.q.q.+.O.O.R.R.O.",
"_.wXkXlXzXVXmXz . =./.=.E.~.~.E.~.E.R.E.R.E.^.^.R./.^././.0XwX9X9X9XqXi.i.xXSXNX<.1.3.9.1.,.x N ( 4.5.5.5.e.0.0.q.q.+.R.+.R.R.O.",
"`.XXkX0X-.*.8.@ t -.X.=.X.~.E.~.~.E.~.~.R.R.R.R.R.^.R././.9X9X9XqXqXqXi.p.n.ZXFXV.d.s.g.j j N ( 4.4.4.4.5.5.0.0.0.q.@.+.+.o.+.+.",
"Q.E.Y.{ ! L ' ] ! O.X.X.X.E.$.R.=.R.R.E.R.~.R.^.R.^.R.R./.9XqXqXqXp.qXxXn.n.S.NXNXS.,.j x N 4.4.4.5.7.e.e.e.e.t.a.qXr.qXqX9XiXlX",
"T.T.Y. .G ! c.c.} X.X.=.X.R.$.R.E.~.X.R.R.R.R.R.R.R.R.O./.9XqXqXqXxXS.qXn.pXS.xXnXy.x _ 0.e.e.i.p.qXb.b.pXpXpXdXqXsXxXlXsXsXbXbX",
"Y.Y. .[ D &.t.W ! X.X.X.$.~.$.$.X.R.R.R.R.R.R.R.^.R.R.+.+.9XqXpXqXS.xXpXpXpXi.iXaXbXt.t.x.9Xr.9XiXiXdXiXdXdXiXdXdXsXsXsXsXsXlXsX",
"T J J G D =.! s T [ { X.X.X.X.E.R.O.X.R.R.R.R.R.R.O.O.O.+.q.qXqXpXiXqXqXr.t.*.-.*.-.+.+.-.-.-.+.-.-.-.-.-.-.-.-./.-.-.-.8X-.-.&.",
"Y.Y.Y.[ [ ..G F T T [  .......X.Y.X.X.X.Y.O.R.{ { X.X.O.O.8X9X8X8X8X+.O.O.X.{ { { { { { { { { [ [ {  . .{ { ..{ { { [ [ { {  .{ ",
"E.T.^.T.E.E.E.E.E.X... .X.{ .. .X. .X. .X.X. .X.X.{ X.X.O.O.o.o.{ { { {  ... ... . . . . . . . . . . . . . . . . . . . . . . . ."
};
