/* XPM */
static char *_fce7d93bd22447995d4da771c9840c64gZuv71KG3poNwfn[] = {
/* columns rows colors chars-per-pixel */
"64 64 215 2 ",
"   c #26293A",
".  c #5D4B3D",
"X  c #7F484E",
"o  c #735D46",
"O  c #7C5254",
"+  c #635646",
"@  c #76614C",
"#  c #797166",
"$  c #7B797E",
"%  c #824648",
"&  c #8B5258",
"*  c #876F53",
"=  c #995A60",
"-  c #826E67",
";  c #916562",
":  c #9C7878",
">  c #A9656C",
",  c #86867A",
"<  c #AB967B",
"1  c #B49C7A",
"2  c #667282",
"3  c #7B7F8B",
"4  c #7E8693",
"5  c #8B8B8C",
"6  c #81858C",
"7  c #90878A",
"8  c #9D998C",
"9  c #858E9E",
"0  c #8B8E9C",
"q  c #868B94",
"w  c #8E9196",
"e  c #8E929D",
"r  c #94979D",
"t  c #949A9E",
"y  c #9B9B9C",
"u  c #979294",
"i  c #B09489",
"p  c #A49D9F",
"a  c #AC8888",
"s  c #99A099",
"d  c #B2A289",
"f  c #A4A09F",
"g  c #B9A894",
"h  c #8A95A9",
"j  c #949AA5",
"k  c #9A9CA6",
"l  c #9A9FAC",
"z  c #919DAD",
"x  c #A89DA3",
"c  c #9CA2AC",
"v  c #9CA6B5",
"b  c #A4A3A4",
"n  c #A9A4A4",
"m  c #A1A4AB",
"M  c #AAA7AB",
"N  c #ACABAB",
"B  c #ACABA7",
"V  c #B1ABAC",
"C  c #ACB4AC",
"Z  c #B7B3AE",
"A  c #A5AAB5",
"S  c #ABACB4",
"D  c #A5ACBB",
"F  c #A1A7B3",
"G  c #AAB2BE",
"H  c #AEB7B4",
"J  c #B4B2B3",
"K  c #B3B4BB",
"L  c #BBB7B9",
"P  c #BBBABC",
"I  c #B7B8BD",
"U  c #C1979B",
"Y  c #CAB08D",
"T  c #C7B091",
"R  c #CDB596",
"E  c #CBACA7",
"W  c #CAB7AC",
"Q  c #C2BBB8",
"!  c #E8BFBD",
"~  c #D9C8AE",
"^  c #CBCABD",
"/  c #C0C0B6",
"(  c #D9C8B2",
")  c #E3CBAF",
"_  c #EBC6BE",
"`  c #ECD3B4",
"'  c #A4AFC5",
"]  c #ABB4C5",
"[  c #ABB6CA",
"{  c #ADBBCD",
"}  c #A7B8CC",
"|  c #B3B9C4",
" . c #BBBDC3",
".. c #B4BDCC",
"X. c #BABFCD",
"o. c #B6B7C6",
"O. c #ACBCD5",
"+. c #AEBDD9",
"@. c #A8B6D1",
"#. c #B2BED2",
"$. c #B1BFD9",
"%. c #BCBDD1",
"&. c #B7C2CE",
"*. c #BBC1CE",
"=. c #B1C0C5",
"-. c #B4C1D3",
";. c #BBC4D4",
":. c #B5C2DB",
">. c #BBC6DA",
",. c #BBC9DC",
"<. c #B6C8DC",
"1. c #B6C5E1",
"2. c #BCCCE4",
"3. c #C4C3C3",
"4. c #CCC7C7",
"5. c #C6C9C3",
"6. c #C9C9C3",
"7. c #C4C7CE",
"8. c #CCCBCB",
"9. c #C8C7CD",
"0. c #D8CFC0",
"q. c #D0CDCE",
"w. c #D0C6C4",
"e. c #DED7C7",
"r. c #DAD7CE",
"t. c #C1C5D3",
"y. c #C4CAD5",
"u. c #CDCCD1",
"i. c #C3CCDD",
"p. c #CBCDDA",
"a. c #C0C5D8",
"s. c #D0CFD5",
"d. c #CCD2DD",
"f. c #C7D8DF",
"g. c #CBD3DA",
"h. c #D4D3D4",
"j. c #DBDBD5",
"k. c #D5D7DC",
"l. c #DCDBDB",
"z. c #D8D6DA",
"x. c #E1D5D3",
"c. c #E0D7D8",
"v. c #E5DCDA",
"b. c #F3D4D2",
"n. c #E3C7C6",
"m. c #EAE2DF",
"M. c #FCEDD7",
"N. c #FFE4DF",
"B. c #F9ECDC",
"V. c #FFF0D1",
"C. c #C6CFE0",
"Z. c #C4D1E6",
"A. c #CCD2E1",
"S. c #CFDBEB",
"D. c #D2D7E2",
"F. c #DADCE4",
"G. c #D9D6E7",
"H. c #E5DCE3",
"J. c #E8DDED",
"K. c #DBE5E8",
"L. c #DEE7F6",
"P. c #E5E3E4",
"I. c #ECE5E4",
"U. c #ECEBE6",
"Y. c #E3E5EB",
"T. c #EBEBED",
"R. c #E7E9EB",
"E. c #FFE7E4",
"W. c #F7EEE7",
"Q. c #FDEBE5",
"!. c #FCEEEB",
"~. c #F4E9ED",
"^. c #E9F2EC",
"/. c #FFF2E3",
"(. c #F3F2EE",
"). c #FCF4EC",
"_. c #FFFBEB",
"`. c #FAF8E6",
"'. c #E4E6F3",
"]. c #ECEDF3",
"[. c #E6EEFA",
"{. c #F1EEF1",
"}. c #FFE9F1",
"|. c #F5EDFA",
" X c #EDF1F6",
".X c #ECFDF4",
"XX c #ECF2FC",
"oX c #EBFFFD",
"OX c #E5FFF5",
"+X c #F4F4F4",
"@X c #FBF4F5",
"#X c #F4FCF5",
"$X c #FDFBF5",
"%X c #F4F5FB",
"&X c #FDF6FB",
"*X c #F6FEFC",
"=X c #FFFAFE",
"-X c #F9FFFF",
";X c #FBFFFF",
":X c #FAFFFF",
">X c #FAFEFE",
",X c #FDFDFD",
"<X c gray99",
"1X c #FFFCFD",
"2X c #FFFFFD",
"3X c #FFFEFD",
"4X c #FFFDFF",
"5X c #FCFFFF",
"6X c #FDFEFF",
"7X c #FFFEFF",
"8X c #FEFFFF",
"9X c white",
"0X c #FEFEFE",
"qX c #FCFEFE",
"wX c #FFFFFE",
/* pixels */
"9X9X9X9X9X9X9X9X9X9X9X9X9X9X9X9X9X9X9X9X9X9X9X9X9X9X9X9X9X9X9X9X9X9X9X9X9X9X9X9X9X9X9X9X9X9X9X9X9X9X9X9X9X9X9X9X9X9X9X9X9X9X9X9X",
"9X9X9X9X9X9X9X9X9X9X9X9X9X9X9X9X9X9X9X9X9X9X9X9X9X9X9X9X9X9X9X9X9X9X9X9X9X9X9X9X9X9X9X9X9X9X9X9X9X9X9X9X9X9X9X9X9X9X9X9X9X9X9X9X",
"9X9X9X9X9X9X9X9X9X9X9X9X9X9X9X9X9X9X9X9X9X9X9X9X9X9X9X9X9X9X9X9X9X9X9X9X9X9X9X9X9X9X9X9X9X9X9X9X9X9X9X9X9X9X9X9X9X9X9X9X9X9X9X9X",
"9X9X9X9X9X9X9X9X9X9X9X9X9X9X9X9X9X9X9X9X9X9X9X9X9X9X9X9X9X9X9X9X9X9X9X9X9X9X9X9X9X9X9X9X9X9X9X9X9X9X9X9X9X9X9X9X9X9X9X9X9X9X9X9X",
"9X9X9X9X9X9X9X9X9X9X9X9X9X9X9X9X9X9X9X9X9X9X9X9X9X9X9X9X9X9X9X9X9X9X9X9X9X9X9X9X9X9X9X9X9X9X9X9X9X9X9X9X9X9X9X9X9X9X9X9X9X9X9X9X",
"9X9X9X9X9X9X9X9X9X9X9X9X9X9X9X9X9X9X9X9X9X9X9X9X9X9X9X9X9X9X9X9X9X9X9X9X9X9X9X9X9X9X9X9X9X9X9X9X9X9X9X9X9X9X9X9X9X9X9X9X9X9X9X9X",
"9X9X9X9X9X9X9X9X9X9X9X9X9X9X9X9X9X9X9X9X9X9X9X9X9X9X9X9X9X9X9X9X9X9X9X9X9X9X9X9X9X9X9X9X9X9X9X9X9X9X9X9X9X9X9X9X9X9X9X9X9X9X9X9X",
"9X9X9X9X9X9X9X9X9X9X9X9X9X9X9X9X9X9X9X9X9X9X9X9X9X9X9X9X9X9X9X9X9X9X9X9X9X9X9X9X9X9X9X9X9X9X9X9X9X9X9X9X9X9X9X9X9X9X9X9X9X9X9X9X",
"9X9X9X9X9X9X9X9X9X9X9X9X9X9X9X9X9X9X9X9X9X9X9X9X9X9X9X9X9X9X9X9X9X9X9X9X9X9X9X9X9X9X9X9X9X9X9X9X9X9X9X9X9X9X9X9X9X9X9X9X9X9X9X9X",
"9X9X9X9X9X9X9X9X9X9X9X9X9X9X9X9X9X9X9X9X9X9X9X9X9X9X9X9X9X9X9X9X9X9X9X9X9X9X9X9X9X9X9X9X9X9X9X9X9X9X9X9X9X9X9X9X9X9X9X9X9X9X9X9X",
"9X9X9X9X9X9X9X9X9X9X9X9X9X9X9X9X9X9X9X9X9X9X9X9X9X9X9X9X9X9X9X9X9X9X9X9X9X9X9X9X9X9X9X9X9X9X9X9X9X9X9X9X9X9X9X9X9X9X9X9X9X9X9X9X",
"9X9X9X9X9X9X9X9X9X9X9X9X9X9X9X9X9X9X9X9X9X9X9X9X9X9X9X9X9X9X9X9X9X9X9X9X9X9X9X9X9X9X9X9X9X9X9X9X9X9X9X9X9X9X9X9X9X9X9X9X9X9X9X9X",
"9X9X9X9X9X9X9X9X9X9X9X9X9X9X9X9X9X9X9X9X9X9X9X9X9X9X9X9X9X9X9X9X9X9X9X9X9X9X9X9X9X9X9X9X9X9X9X9X9X9X9X9X9X9X9X9X9X9X9X9X9X9X9X9X",
"9X9X9X9X9X9X9X9X9X9X9X9X9X9X9X9X9X9X9X9X9X9X9X9X9X9X9X9X9X9X9X9X9X9X9X9X9X9X9X9X9X9X9X9X9X9X9X9X9X9X9X9X9X9X9X9X9X9X9X9X9X9X9X9X",
"9X9X9X9X9X9X9X9X9X9X9X9X9X9X9X9X9X9X9X9X9X9X9X9X9X9X9X9X9X9X9X9X9X9X9X9X9X9X9X9X9X9X9X9X9X9X9X9X9X9X9X9X9X9X9X9X9X9X9X9X9X9X9X9X",
"9X9X9X9X9X9X9X9X9X9X9X9X9X9X9X9X9X<X9X9X<X9X9X9X9X9X9X1X9X1X1X1X9X9X9X9X9X1X1X1X1X9X9X9X9X9X9X9X9X9X9X9X9X9X9X9X9X9X9X9X9X9X9X9X",
"9X9X9X9X9X9X9X9X9X9X9X9X9X9X9X9X=X@X@X<X<X<X<X<X&X9X1X$X$X1X1X1X@X9X>X$X1X1X$X1X1X1X9X9X9X>X>X9X9X9X9X9X9X9X9X9X9X9X9X9X9X9X9X9X",
"9X9X9X9X9X9X9X9X9X9X9X9X9X9X9X9X@X=X1X9X<X=X=X=X9X<X1X1X1X9X$X>X>X#X1X1X(.$X1X(.1X9X9X9X9X9X>X>X9X9X9X9X9X9X9X9X9X9X9X9X9X9X9X9X",
"9X9X9X9X9X9X9X9X9X9X9X9X9X9X9X9X$X>X*XoXoXoXoX*X9X<X&X<X9X9X>X>X^.9X9X+X1X$X).1X$X9X9X9X9X>X>X>X>X9X9X9X9X9X9X9X9X9X9X9X9X9X9X9X",
"9X9X9X9X9X9X9X9X9X9X9X9X9X9X9X9X>X*X.XOXoXoXoX*X<X<X<X<X&X*X*X*X>X%X>X9X9X$X1X9X1X1X9X9X9X9X9X>X9X9X9X9X9X9X9X9X9X9X9X9X9X9X9X9X",
"9X9X9X9X9X9X9X9X9X9X9X9X9X9X9X9X1X=X<X<X>X>X%X>X9X<X].s. . .G.&X9X>X>X9X<X9X9X+X1X1X1X9X9X9X9X9X9X9X9X9X9X9X9X9X9X9X9X9X9X9X9X9X",
"9X9X9X9X9X9X9X9X9X9X9X9X9X9X9X<X1X&X<X=X<X=X<X9X>XP 4 q c c 0 q K T.9X>X9X<X@X9X1X1X1X1X9X9X9X>X9X9X9X9X9X9X9X9X9X9X9X9X9X9X9X9X",
"9X9X9X9X9X9X9X9X9X9X9X9X9X9X9X9X1X@X=X&X}.&X=X~.6 t ] f.f.;.t.p.k m D.9X%X<X9X9X9X9X9X9X1X1X1X9X9X9X9X9X9X9X9X9X9X9X9X9X9X9X9X9X",
"9X9X9X9X9X9X9X9X9X9X9X9X9X9X9X9X1X@X=X=X}.&X}.x P K.oXK.&...%.o.p.l r 7.9X>X+X9X9X9X9X9X9X1X1X9X9X9X9X9X9X9X9X9X9X9X9X9X9X9X9X9X",
"9X9X9X9X9X9X9X9X9X9X9X+X9X9X9X9X>X#X#X>X#X$X8.B 9X*X X%X*XA.#.;.X.X.y.3 '.9X%X>XR.I w y T.9X<X<X1X>X9X9X9X>X9X9X9X9X9X9X9X9X9X9X",
"9X9X9X9X9X9X9X9X<X<X9X9X<X#X9X#X#X^.#X#X1X#Xs #Xl.8.9XXXF.*Xp.;.| t.X.;.3 XX>XD.r t 7.t M 9X9X9X9X9X<X@X1X9X9X9X9X9X9X9X9X9X9X9X",
"9X9X9X9X9X9X9X9X<X<X9X9X9X<X9X1X>X$X$X).$Xm.Q $XU.1X9Xk.G.>X'.%.t.| ..| D j ;.4 A D.| I S 9X].<X9X9X9X>X>X9X9X@X9X9X9X9X9X9X9X9X",
"9X9X9X9X9X9X9X9X9X9X<X9X>X@X+X1X@X).$Xn.a : b.Q.r.l.h.K.<X|.|.G.%.t.;.;.i.2 z ;.i...X.| 4 %X9X+X%X9X9X9X=X<X<X9X9X9X9X9X9X9X9X9X",
"9X9X9X9X9X9X9X9X<X<X9X@X9X9X{.9X$X$XU % > = = ! W Q C H s ^.|.J.4 v =.<.-.' ] { ] { ....l e %X9X1X#X<X9X1X#X=X9X9X9X9X9X9X9X9X9X",
"9X9X9X9X9X9X9X9X9X9X9XT.>Xh.K / $XE.O & > > % ; ).`.#X.X*XS H.&X  $ 2.-.} -.2.,.>.>.>.%.i.D 3 9X9X9X<X<X9X9X9X9X9X9X9X9X9X9X9X9X",
"9X9X9X9X9X9X9X9X+X9X9X9X9X5.z.4.$X).- E E.E._ i . 8 , Z B f n &X} -.<.-.:.<.{ { @.1.' C.] A.D m %X9X9X9X9X9X9X<X9X9X9X9X9X9X9X9X",
"9X9X9X9X9X9X9X9X9X9X<X9XP.5 8.s U.^ ( /._._._._.+ # r.5.h.4.p z.[.} } -.1.} 2.-.$.$.$.#.%...a.0 P P.9X9X+X9X9X>X9X9X9X9X9X9X9X9X",
"9X9X>X9X>X9X9X9X1X9X9X1Xy 9XT.b C 8 _.( V.` ) _.e.6.9XY.T.&Xv.n [.=.#.-.<.O.:.:.1.+.+.$.#.;.%.G 5 u 3.1X>X9X@X9X9X9X9X9X9X9X9X9X",
"9X9X9X>X9X9X9X<X9X+X9Xq.q.9XJ U.^ ^ _.~ 1 Y T M._.5.>X>X|.H.x.V L.<.#.-.:.$.1.+.1.+.+.1.O.#.-.;.c P 5 (.9X1X9X9X9X9X9X9X9X9X9X9X",
"9X>X9X9X9X9X<X<X+X+X=XN R.9X3.P.5.j.B.d R R < ( _.@X>XXX<XH.Z 7 D.S.{ -.:.$.1.O.@.$.1.Z.-.-.;.g.K.+X8.P 9X<X<X+X9X9X9X9X9X9X9X9X",
"9X9X9X9X>X9X<X<XT.P.=Xq.P.{.L R.5.(._.g < * < M.$X#X>X>X<X<X!.u d.L.{ ..#.$.:.$.2.@.h z v ;.;.t.+X>X9Xy <X9X9X9X9X9X9X9X9X9X9X9X",
"9X9X9X9X>X9X<X<X9XT.9X8.4.9XL <XH T.$XB.@ o ( _.$X+X9X>X].=X=XL D.[.| ;.;.#.#.$.@.#.' v h 9 G [.%X+XP.J +X>X9X9X9X9X9X9X9X9X9X9X",
"9X>X>X9X9X9X9X<X9X9X9Xv.N 9X<X9X5.h.$X$XW ( _.).$X9X*X%X9X<X).M K.[.;...>.;.#.#.>...#.p.-.j F ].%XT.9XL T.>X>X+X9X9X9X9X9X9X9X9X",
"9X9X9X9X9X9X9X9X+X<X9X9X8.N {.9XR.P $X)._._._.`.1X+X>X9X9X9X}.n ].XXg.D ] ;.;.#.>...;.&.&.e | >X(.P.9Xb #X9X9X9X9X9X9X9X9X9X9X9X",
"9X9X9X>X>X9X9X9X9X9X9XT.9XP n M h.$ c.1XQ.$X$X$X1X9X<X>X9X4.n 8.<XXXd.e l ..y.;.X.#.y.G y.S p.9X%X9XN J 9X@X9X<X9X9X9X9X9X9X9X9X",
">X9X9X>X9X9X9X9X9X9X<X9X<X+XH.h.P M p V w.v.m.v.z.8.S y b 5.~.<X&X>X%Xy.A c F F D | t.| j q c  .b b L z.+X9X9X9X9X9X9X9X9X9X9X9X",
"9X9X9X9X9X9X9X9X9X9X<X9X<X<X{.T.{.{.J.8.Z x p n B C B f b N Z Z S K S m m S A c k r w t m K 3.9.z.l.l.(.9X9X9X=X9X9X9X9X9X9X9X9X",
"9X9X9X9X9X>X9X9X9X9X<X9X<X9X9X<X&X=X<X<X&X#X=X1X(.(.(.U.H.z.q.3.u.u.s.l.Y.]. XR.].K.F.K.R.|.%X%X%X>X>X9X9X1X9X9X9X9X9X9X9X9X9X9X",
">X9X9X>X9X9X9X9X9X9X9X9X<X9X<X9X<X<X&X=X9X9X1X+X1X1X>X+X+X+X@X{.{.+X%X&X*X<X>X>X>X9X9X1X<X<X<X9X$X1X9X9X1X>X9X9X9X9X9X9X9X9X9X9X",
">X9X9X9X9X9X9X9X9X9X9X9X1X=X9X9X=X1X9X9X9X9X>X9X$X>X1X1X<X9X<X9X9X9X9X9X9X>X9X9X9X9X9X9X9X9X9X9X9X9X9X9X1X>X9X<X9X9X9X9X9X9X9X9X",
"9X9X9X>X9X>X9X9X1X9X9X9X9X1X9X1X$X1X9X9X>X*X>X>X1X1X$X1X<X<X&X+X=X&X$X1X9X9X1X1X9X9X1X>X<X1X1X1X9X9X9X9X9X9X9X<X9X9X9X9X9X9X9X9X",
"9X9X9X9X9X9X9X9X9X9X9X9X9X9X9X9X1X$X@X>X9X>X>X>X1X$X$X=X9X9X9X9X9X1X1X1X1X1X1X#X@X1X1X1X$X1X1X1X<X1X>X9X9X9X9X9X9X9X9X9X9X9X9X9X",
">X9X9X9X>X9X9X9X9X1X=X=X=X9X9X1X$X1X9X9X>X>X>X>X1X1X1X1X9X<X<X<X=X1X1X1X@X1X1X1X9X9X1X1X9X1X1X@X9X9X9X9X<X9X9X>X9X9X9X9X9X9X9X9X",
"9X9X9X9X9X9X9X9X9X9X9X9X9X9X9X9X9X1X9X9X9X9X9X9X9X1X1X1X9X9X9X9X9X<X9X9X9X9X9X9X9X9X9X9X9X9X<X9X9X9X9X9X9X9X9X9X9X9X9X9X9X9X9X9X",
"9X9X9X9X9X9X9X9X9X9X9X9X9X9X9X9X9X9X9X9X9X9X9X9X9X9X9X9X9X9X9X9X9X9X9X9X9X9X9X9X9X9X9X9X9X9X9X9X9X9X9X9X9X9X9X9X9X9X9X9X9X9X9X9X",
"9X9X9X9X9X9X9X9X9X9X9X9X9X9X9X9X9X9X9X9X9X9X9X9X9X9X9X9X9X9X9X9X9X9X9X9X9X9X9X9X9X9X9X9X9X9X9X9X9X9X9X9X9X9X9X9X9X9X9X9X9X9X9X9X",
"9X9X9X9X9X9X9X9X9X9X9X9X9X9X9X9X9X9X9X9X9X9X9X9X9X9X9X9X9X9X9X9X9X9X9X9X9X9X9X9X9X9X9X9X9X9X9X9X9X9X9X9X9X9X9X9X9X9X9X9X9X9X9X9X",
"9X9X9X9X9X9X9X9X9X9X9X9X9X9X9X9X9X9X9X9X9X9X9X9X9X9X9X9X9X9X9X9X9X9X9X9X9X9X9X9X9X9X9X9X9X9X9X9X9X9X9X9X9X9X9X9X9X9X9X9X9X9X9X9X",
"9X9X9X9X9X9X9X9X9X9X9X9X9X9X9X9X9X9X9X9X9X9X9X9X9X9X9X9X9X9X9X9X9X9X9X9X9X9X9X9X9X9X9X9X9X9X9X9X9X9X9X9X9X9X9X9X9X9X9X9X9X9X9X9X",
"9X9X9X9X9X9X9X9X9X9X9X9X9X9X9X9X9X9X9X9X9X9X9X9X9X9X9X9X9X9X9X9X9X9X9X9X9X9X9X9X9X9X9X9X9X9X9X9X9X9X9X9X9X9X9X9X9X9X9X9X9X9X9X9X",
"9X9X9X9X9X9X9X9X9X9X9X9X9X9X9X9X9X9X9X9X9X9X9X9X9X9X9X9X9X9X9X9X9X9X9X9X9X9X9X9X9X9X9X9X9X9X9X9X9X9X9X9X9X9X9X9X9X9X9X9X9X9X9X9X",
"9X9X9X9X9X9X9X9X9X9X9X9X9X9X9X9X9X9X9X9X9X9X9X9X9X9X9X9X9X9X9X9X9X9X9X9X9X9X9X9X9X9X9X9X9X9X9X9X9X9X9X9X9X9X9X9X9X9X9X9X9X9X9X9X",
"9X9X9X9X9X9X9X9X9X9X9X9X9X9X9X9X9X9X9X9X9X9X9X9X9X9X9X9X9X9X9X9X9X9X9X9X9X9X9X9X9X9X9X9X9X9X9X9X9X9X9X9X9X9X9X9X9X9X9X9X9X9X9X9X",
"9X9X9X9X9X9X9X9X9X9X9X9X9X9X9X9X9X9X9X9X9X9X9X9X9X9X9X9X9X9X9X9X9X9X9X9X9X9X9X9X9X9X9X9X9X9X9X9X9X9X9X9X9X9X9X9X9X9X9X9X9X9X9X9X",
"9X9X9X9X9X9X9X9X9X9X9X9X9X9X9X9X9X9X9X9X9X9X9X9X9X9X9X9X9X9X9X9X9X9X9X9X9X9X9X9X9X9X9X9X9X9X9X9X9X9X9X9X9X9X9X9X9X9X9X9X9X9X9X9X",
"9X9X9X9X9X9X9X9X9X9X9X9X9X9X9X9X9X9X9X9X9X9X9X9X9X9X9X9X9X9X9X9X9X9X9X9X9X9X9X9X9X9X9X9X9X9X9X9X9X9X9X9X9X9X9X9X9X9X9X9X9X9X9X9X",
"9X9X9X9X9X9X9X9X9X9X9X9X9X9X9X9X9X9X9X9X9X9X9X9X9X9X9X9X9X9X9X9X9X9X9X9X9X9X9X9X9X9X9X9X9X9X9X9X9X9X9X9X9X9X9X9X9X9X9X9X9X9X9X9X",
"9X9X9X9X9X9X9X9X9X9X9X9X9X9X9X9X9X9X9X9X9X9X9X9X9X9X9X9X9X9X9X9X9X9X9X9X9X9X9X9X9X9X9X9X9X9X9X9X9X9X9X9X9X9X9X9X9X9X9X9X9X9X9X9X",
"9X9X9X9X9X9X9X9X9X9X9X9X9X9X9X9X9X9X9X9X9X9X9X9X9X9X9X9X9X9X9X9X9X9X9X9X9X9X9X9X9X9X9X9X9X9X9X9X9X9X9X9X9X9X9X9X9X9X9X9X9X9X9X9X"
};
