/* XPM */
static char *b58288350fc34984efb3526cb3cf910dgcdx5l9qup3PIns5[] = {
/* columns rows colors chars-per-pixel */
"64 64 228 2 ",
"   c #5B3B6A",
".  c #683777",
"X  c #743478",
"o  c #7F2A73",
"O  c #5F4769",
"+  c #ED1E09",
"@  c #FF1603",
"#  c #F61708",
"$  c #F41C0D",
"%  c #F81A07",
"&  c #F30E1D",
"*  c #FF0A11",
"=  c #EC1A13",
"-  c #EC171F",
";  c #E51E1D",
":  c #EC1C1D",
">  c #F51613",
",  c #FD1513",
"<  c #F31916",
"1  c #FC1A14",
"2  c #F4161B",
"3  c #FD161C",
"4  c #F21B1D",
"5  c #FB191A",
"6  c #DD2808",
"7  c #DA231E",
"8  c #D92617",
"9  c #EC240C",
"0  c #E3270B",
"q  c #FA2102",
"w  c #F72202",
"e  c #EB2115",
"r  c #E4231B",
"t  c #EB211C",
"y  c #F12216",
"u  c #DB1E29",
"i  c #D81F28",
"p  c #CE1D31",
"a  c #DD1E32",
"s  c #DA1B3D",
"d  c #D21F35",
"f  c #EB0D2B",
"g  c #FF0B26",
"h  c #FF0B2B",
"j  c #E61D25",
"k  c #ED1B24",
"l  c #EF152B",
"z  c #E61D2B",
"x  c #EA1B2A",
"c  c #EA1624",
"v  c #F41524",
"b  c #FD1524",
"n  c #F41B21",
"m  c #F91B24",
"M  c #F4142A",
"N  c #FD142A",
"B  c #F3192B",
"V  c #FB182C",
"C  c #FC0C33",
"Z  c #FF0F3C",
"A  c #E61532",
"S  c #EE1537",
"D  c #E51D33",
"F  c #E91F32",
"G  c #E7133D",
"H  c #ED113C",
"J  c #F61634",
"K  c #CA2927",
"L  c #DD2323",
"P  c #D7262C",
"I  c #DC222C",
"U  c #D22925",
"Y  c #CC263B",
"T  c #D92339",
"R  c #D83236",
"E  c #E42224",
"W  c #EA2124",
"Q  c #E3212B",
"!  c #EB202C",
"~  c #F22024",
"^  c #F32029",
"/  c #E42134",
"(  c #E2213C",
")  c #B71F48",
"_  c #9D2C5A",
"`  c #B92447",
"'  c #B9245A",
"]  c #9C2A69",
"[  c #842C7A",
"{  c #952C72",
"}  c #99297B",
"|  c #823374",
" . c #863778",
".. c #873269",
"X. c #B72762",
"o. c #CE1E41",
"O. c #DF1545",
"+. c #D51F45",
"@. c #C91B51",
"#. c #D81B55",
"$. c #EC0E41",
"%. c #FF0A43",
"&. c #F0094A",
"*. c #F31644",
"=. c #C5214A",
"-. c #D92348",
";. c #E12148",
":. c #C40C7B",
">. c #5A398E",
",. c #513486",
"<. c #4B3E97",
"1. c #553E90",
"2. c #5D3B91",
"3. c #533B9D",
"4. c #6F2C89",
"5. c #782E84",
"6. c #752B8B",
"7. c #7B2D8E",
"8. c #782984",
"9. c #613684",
"0. c #673883",
"q. c #62368F",
"w. c #6A338E",
"e. c #6A3A8B",
"r. c #62388E",
"t. c #71318C",
"y. c #773386",
"u. c #6D2E97",
"i. c #6A2C98",
"p. c #752D93",
"a. c #712E9A",
"s. c #7C2B9B",
"d. c #792799",
"f. c #643494",
"g. c #693292",
"h. c #633993",
"j. c #63349C",
"k. c #6C329A",
"l. c #62389D",
"z. c #743394",
"x. c #73329B",
"c. c #793299",
"v. c #7B1FB2",
"b. c #5A39A6",
"n. c #5637B7",
"m. c #5C2FA6",
"M. c #6621AF",
"N. c #6A2BA6",
"B. c #782BA6",
"V. c #6235A3",
"C. c #6A33A3",
"Z. c #6D32AB",
"A. c #6A3DAF",
"S. c #653BA4",
"D. c #7234A3",
"F. c #6B27B2",
"G. c #7E2BB3",
"H. c #6935B2",
"J. c #51439A",
"K. c #484491",
"L. c #4C46B2",
"P. c #6140B5",
"I. c #901D93",
"U. c #882886",
"Y. c #932887",
"T. c #813285",
"R. c #81308C",
"E. c #8B308D",
"W. c #872799",
"Q. c #96229F",
"!. c #9B1EA8",
"~. c #9517B8",
"^. c #A71CA5",
"/. c #B714A1",
"(. c #8827AA",
"). c #842AA8",
"_. c #9C22A3",
"`. c #9527A4",
"'. c #8430AC",
"]. c #DD0E94",
"[. c #FF008B",
"{. c #F7029F",
"}. c #DF05AD",
"|. c #D20BAD",
" X c #D50AA7",
".X c #C511AE",
"XX c #C90FB0",
"oX c #D60AB2",
"OX c #DE0AB4",
"+X c #DB0BBA",
"@X c #D70EBF",
"#X c #CF12B7",
"$X c #CF0EB1",
"%X c #EF02AD",
"&X c #EE0DAD",
"*X c #E60AA9",
"=X c #FE01A4",
"-X c #F600AD",
";X c #FE00AC",
":X c #F00AAB",
">X c #E403B3",
",X c #EC04B5",
"<X c #EA0AB5",
"1X c #E506B9",
"2X c #EC04BC",
"3X c #E40BBA",
"4X c #EC0ABA",
"5X c #E30AB3",
"6X c #F400B5",
"7X c #FD00B6",
"8X c #FE00B6",
"9X c #F409B1",
"0X c #F501BA",
"qX c #FC00BB",
"wX c #F009BB",
"eX c #E210B1",
"rX c #DA09C4",
"tX c #ED02C2",
"yX c #E40BC3",
"uX c #E60ACE",
"iX c #E805C4",
"pX c #F304C2",
"aX c #FE00C2",
"sX c #F600C9",
"dX c #FF00CA",
"fX c #FF00D8",
"gX c #E608D9",
"hX c #FC00E5",
/* pixels */
"M l z Q n z I e b E L b V n Q v U j 4 W B g m U 4 k x : 4 4 x D M M Q z n z I e b E L b V B W v 7 L N ! ; 2 K S k k x k k k k k ",
"n k Q x n n n : v L 7 - n W 7 : v 2 r 7 L k v 3 x j z z k n k x n x Q W n n k 4 v L 7 : 2 E 7 : 2 c g v 4 3 Q B k k l k k k k k ",
": W t k m 3 v D V x Q B x Q Q B h V b b x I W ~ x Q z F x k n 4 : r j n m 3 2 x N ! j B ^ Q Q B B I l F x b n 3 k k k k k k k k ",
"k E : : x 3 2 =.N N v M M k l M u I j v x U L 3 k n n k x x k n c E : : B 2 v =.N M M M l x l M q 6 8 L T / B ~ k k k k k k k k ",
"v z 2 k ( n L { 1.>.g.r.>.>.2.q.z.>.1.w.z.6.Y.:.: < 1 < B Q z k v z v k ( n I { 1.h.w.q.>.>.r.r.v.N.d.I.U.' x 9 k k k k k k k k ",
"M D 2 k -.n L z.<.k.W.W.x.s.s.s.B.k.k.z.a.k.f.. =.z < 1 n z z k M D 2 n -.n L z.<.k.W.s.a.s.s.x.l.2.g.d.r.X G t k k k k k k k k ",
"n a > n -.5 j C.!.|.9X6X%X6X-X>X6X7X6XqXqX>X_.r.} ' z < n Q x k n a > 4 -., j V._.|.-X6X,X-X6X>X8X6X9X>XB.X O.r k l k k k k k k ",
"t u # 5 ;., 2 N.(.XX8XqX0X7X7X<X0XqX,X4XdXqXXXs.D.} Y c k ! j < : I # 5 ;., 2 Z.(.XX8XqX0X7X7X<X,X0XqXtXZ.. *.1 k k k k k l k k ",
"! < W W B 4 j u.a.6X0X0X4X7X6X0X0X0X0XqX0X0X0X0Xo F.R.P 0 & M R k = M E N < l V.k.6X0XqX4X7X6XtXqXtX7X,Xk.k.: k k k k k k k k k ",
"F < x n x 4 j u.a.6XpXqX4XqX0XpX6XqX0X6X6X0X0X6XoXy.s.g.A % t v z ; F Q M 4 n k.a.6X0XqX4X7X7X0XqX2X7X6Xk.k.- n k k x k k k k k ",
"/ > W k x 4 j k.u.-X0XqX4X7X6X0X0X0X0X0X0X0X7X0XpX=Xl.M.6.Q % & / t J I S : 2 p.k.6XpXqX4X7X0X0XqX2X7X6Xk.k.c k k k k k k k k k ",
"F < W k x m x u.a.6XpXqX4X7XqXpX0X6X0XqX0X0X0X0XaXuX;Xh.M.t.A 0 ! < m E l W n z.a.6XpX0X4XqX6XpXqXpX7X6Xk.k.: k k k k k k l k k ",
"/ < x W l y x u.k.6XpXqX4X7X6X0X0X0X0X6X6X0X0X6XsXqX4X;Xh.M.g.P x % , y M z x z.a.6XpXqX4X7X0X0XqX2X7X6Xk.k.: k k k k k k k k k ",
"F > W n x ~ ! k.k.6X0XqX,XqX0XpX6X0X0X0X0X0XqX0XwX6XqX4X;Xl.s.R.=.; 3 y v Q z g.k.-XpXqX4X7X6XpXqX2X7X6Xk.k.2 k k k x k k k k k ",
"F < x k x 4 j u.a.6XpXqX4X7X6X0X0XqX0XqX0X0X0X0X&XaX6X0XuX=XT.F.Y.` x t N W x u.a.6X0XqX4X7X6X0XqX2X7X6Xk.k.n k k k k k n x k k ",
"F < W W l 4 j u.a.6X0XqX4XqX6XpX0X6X0X6X0X0XqX0XqX&XwXsXaX2X}.5.Z.] +.E M W c 4.a.6X0XqX4X7X6XpXqXtX7X6Xk.k.c k k k k k k k k k ",
"F < W k x m E u.a.6X0XqX4XqXqX0X0X0X0X0X6X0X0X6X0X0X6X0XqX6X0X0XB.i.h.G I 0 * J.l.<XaX0X2X<X7XaXqXtX7X6Xk.k.k k n k k k k k k k ",
"F < W k x 4 x u.a.6X0XqX4X7X6XpX0X0X0X7X0X0X0XqX0XqX0X0X0X0X0X0X@XT.. 7.z n v a.x.6XaXqXwX<X7XqXqX2X7X6Xk.k.- k k k k k k k l k ",
"F < x n x 4 j k.k.6X0XqX4X7X6X2X0X0X0X0XqX0X0X0X0X6X6X0X0XqX0X6XtX[.b.X c.l g A.a.8XaXqXqXwX0XwXqXtX7X6Xk.k.4 k k k k k k k k k ",
"F < W k l 4 j u.k.6XpXqX4X7X0X0X0X6X0X0X6X0X0X6X0X0X0XqX0X6X0X0X;X0X6XA.C.o f n.k.,XqXqXqX6X0XpXqX2X7X,Xk.k.- k k k k k k k k k ",
"/ < ! n x y x k.a.6X0XqX4XqX0X0X0XqX0X0X0X0X0X6X0X0X0X0X0X6X0X0X6X7XgXdXh.d.. w.k.5XpX0XqX7X7XpXqX2X7X6Xk.k.- k k k k k k k k k ",
"F < W k x m x u.k.-XpXqX,X7X0XpX0X6X0X0X0X0X0XqXqX6X6X0X0XqX0X0X&XqXhX].pXA.d.,.x.<XpX1X0X6X7X0XqX2XqX6Xk.k.: k k l k k k k k k ",
"F < W k x 4 E u.a.6X0XqX4X7X6X0X0X6X0X6X0X0X0X6X0X0X0X0X0X0X0X6X&XfX-X=X3XhX .~._.7XaX1X0X6X7X2XqXtX7X,Xk.k.: k k k k k k k l k ",
"F < W n x 4 x u.k.6XpXqX4XqX0X0X0X0X0X0X7X0X0X0X0X0X6X0XqX6X0XqXdX*X6X=XqX5X*XrX/.7XaX2X6X6X7X2XqX0X7X6Xk.k.c n k k k k k k k k ",
"F < x k x 4 W u.a.6X0XqX4X7X6XpXqX1X7X3XqXwXqX6X0X0X0XqX0X0X0X6X0XwXqX0X0X0X0X0X0X0X0X6XqX0X6XqXqX2X7X6Xk.k.: k k k k k k k k k ",
"F < W W x m E k.a.6XpXqX4X7X0X0X0XqXqX#XqX3X4XqX0X6X6X0X6XqX0X0X0X0X0X6X6X0X6X0X6XqX0X0X6X0X0X0XqX2X7X6Xk.k.c k k k k k k k k k ",
"! < k k x n j u.k.6X0XqX4X7X0X0XqX3XqXqX0X2XqX3XqX6X0X0X0X0X0X0X0XqX6X0X0X0XqX0X0X0X0X0X0X0XqX0XqXtX7X6Xk.k.2 k k k k k k k l k ",
"/ < W k k 4 x u.k.6XpXqX4X7X0XpX0X4XqXqXqXqXaXyX0X0X0X0X0X6X0XqX0X0X0X0XqX6X0X0X0X6X0XqX0X0X6X0XqX2X7X6Xk.k.: k k k x k k k k k ",
"F < W k x n j u.a.6XpXqX4X7X6X0X,X,XqX7XoX+X0XqX0X6X0X0X0X6X0X6X6X0XqX6X6X0X0X0X6X0X0X6X0X0X6XqXqXtX7X6Xk.k.4 k k k k k k k k k ",
"F < ! n x 4 j u.a.-XpXqX4X7X0XtXqX,X7X8XP.(.%X8X0X0XqX6X0X0X0X0X0X0X0X0X0X0XqX6X0X0X0X0X0X0X0X0XqX2X7X6Xk.k.- k k k k k k k k k ",
"F < k k x m E u.k.6X0XqX4X7X6X0X0XqX7X}.S.k._. X0X0X0X0X0X0X0X0X0X0X0X0X0X0X0X0X7X0X0X6X6XqX0X0XqXtX7X6Xk.k.: k k k l x k k x k ",
"F < W k x n x k.a.6X0XqX4X7X0X0XqX3X3X-Xx.d.p.J.qX6X0X0X0X7X0X6X0X0X0X6XqX0X6X0X0X0X0X0X0X0X6X0XqX2X7X6Xk.k.k k k k k k k k k n ",
"F < W k x 4 x u.a.,XpXqX4X7X6XpX6XpX0X;Xf.n.5.n.dX9X9XtXaX;X9XiX7X0X6X0X0X6X0X0X0X0X0X0X0X0X0X0XqX2XqX6Xk.k.c k k k k k k k k k ",
"F < W k x 4 x u.k.6X0XqX4X7XqX2X8XtXpX8Xw.m.] D.G.>X6XqXrX,X8XqX6X0X0X0X0XqX0X0X6X0X0X7X0X6X0X6XqX2X7X6Xk.k.4 k k k k k k k k k ",
"! < W k x 4 E k.a.6XtXqX4X7X0X0X;XtXpX7Xi.i.` ] K.).8X<XwX+X,X8X0X0X0X0X0X6X6XqX0X0X0X0X0X0X6X0XqXtX7X6Xk.k.n : k k k k k k l k ",
"D < W n x m j u.a.6X0XqX4X7X0X0X;XtXpX7Xw.7.u Y X 6.). X7XrXpX=X0X0X6XqX0X0X0X0XqX6X0X0X0X0XqX0XqX2X7X6Xk.k.- k k k k k k k k k ",
"F < k k x 4 x u.a.6X0XqX4X7X6XpX8X0XwXqXk.R.= x #.. 7.c.%XdXtX:X0X0X0X6X0X0X0X0X6X0X0X6X0X0X6X0XqX2X7X6Xk.k.- k k l k k k k k k ",
"/ 2 W W x m W u.a.-XpX0X4X7X0X0X8XwX0XqXf.7.4 < P &.  Y.D.aXaXeX6X0X0XqX0X7X0X6X0X0X0XqX7X0X0X0XqX2X7X6Xk.k.: k k k k k k k k k ",
"! < k n x 4 j u.k.6X0XqX4X7X0X0XqXpX6X8Xl.p.: n t b @.0.b.|.6X,XqX0X0X0X0XqX0X0XqX0X0X0X0X0XqX0XqXtX7X6Xk.k.k k k k k k k k l k ",
"/ < x W x n j u.a.6XpXqX4X7X0XpX0X0X9X8Xl.x.u x + 1 *.e.B.W.;XsX0X0X6X0X0X6X0X0X6X0X0X0X6X0X6X0XqX2X7X6Xk.k.- k k k k k k k k k ",
"F < x k x m W u.a.6X0XqX4XqX6X0XqX0X7X6Xk.k.k k < T V S X <.B.1XqX0X7XqXyXyXqX&X0X0X0X0X0XqX6X0XqX2X7X6Xk.k.4 k k k k k k l x k ",
"F < W W x 4 j u.a.6X0XqX4X7X0X0XqXiX7X6Xk.k.c : 7 n J k M 0.'.W.%XoX<X<XqXaX0X8X0X0X0X7X0X0X0X0XqX2X7X6Xk.k.c j k k k k k k k k ",
"F < x n x 4 j k.k.6X0XqX4X7X6XpXqX2XqX6Xk.k.: n M v E y 9 G e.k.^.}.eX<XqXqX0XqX0X0X0X6X0X6X6X0XqX2X7X6Xk.k.2 k k k k n k k k k ",
"F < W k x 4 x u.k.6XpXqX1X7XqX0XqX2X7X6Xk.k.- k C c 0 W V + d V.C.}.0XqX4X6XtXtX6X0X0X0X0X0XqX0XqXtX7X6Xk.k.: k k k x k k k k k ",
"F < W n x 4 W k.a.6X0XqX4XqX0X0XqX2X7X,Xk.k.: k ! E : S Z @ = | a.F.qXiXqX9X,XpXqX0X6XqX0X0X0X0XqXtX7X6Xk.k.v k k k k k k k k k ",
"F < W W x m x u.k.-XpXqX,X7X0XpXqX2X7X6Xk.k.- k 8 2 S s 8 g -.x o W.L.qX6X;XqX0X0X0X0X0X6X0X0X6XqX2X7X6Xk.k.: k k k k k k k k k ",
"F < x k x 4 j u.a.6X0XqX4X7X6X0XqX2X7X6Xk.k.v k r g F K + Y %.> O.O W.Z.}.8X0XaX6X0XqX0X0X0X0X0XqXtX7X6Xk.k.k k k k k l k k k k ",
"F < W ~ x 4 x u.k.6XpXqX4XqX0X0XqXpX7X6Xk.k.k : z D , @ I x r L t $.X 3.(.OX0XiX0X0X6X0X0X0X7X0XqX2X7X6Xk.k.: k k k k k k k k k ",
"F < x k x ~ W u.a.-XpXqX4X7X6X0XqX2XqX6Xk.k.- k k k k k k k k k t < ) 5.N. X7XdX1XqXqXqX7X#X4XqXqX2X7X6Xk.k.4 : n k k k k k k k ",
"F < W k l 4 x k.u.6XpXqX4X7X0XpXqX2X7X6Xk.k.k 4 k k k k k k k k 4 M l ..[ n.OX8X7X<XqX0X0X0X4XqXqX2X7X6Xk.k.c k k k l k k k k k ",
"! < W k x m k i.k.6X0XqX4X7X6X0XqXtX7X,Xk.k.: k k k k k k k l k < *.Q + z.B.V.*X8X6XqX+X1X7X7X0XqX2X7X6Xk.k.: k k k k k k l k k ",
"F < W k z 2 z u.a.6X0XqX4XqX6XpXqX2X7X6Xk.k.c k k k k k k k k k l r < *.& e.).e. X8X4X4X0XqX7X3XqXtX7X6Xk.k.c k k k k k k k k k ",
"/ > x k x 4 j k.k.6X0XqX4X7X6X0XqX2X7X6Xk.k.k : k k k k k k k k J 6 x N J x y.9.`.5X6XqXqX0XqX3XqX2X7X6Xk.k.2 k k k k k k k k k ",
"F < W ~ x 4 k u.k.6XpXqX,XqX0XpXqXtX7X6Xk.k.- k k k k k k k k k 9 Z 6 k F E 8 I.k._.-XqXaXqX1X6XqXtX7X6Xk.k.: k k k k k k k k k ",
"F < k k x 4 W k.a.6XpXqX4X7X7X0XqX2X7X6Xk.k.k k k l x k k k k k m : C U E 9 D s f.D..X4XqXqX1X7XqX2XqX6Xk.k.: k k l k k x k k k ",
"/ 2 W k x m W k.a.6X0XqX4XqX6XtXqX2X7X6Xk.k.: c k n k k k k k k v A I c < h J 0 f.a.'.+XaX,X7X8XqX2X7X6Xk.k.c k k k k k k k k k ",
"E M M r = n @.[ w.w.f.w.f.w.i.w.V.f.g.i.w.{ T @ k k k k k k k k c k k k k k k k Y _ r.m.f.6.6.p.V.f.i.f.p.{ d @ k k n k k k k k ",
"j M l r t v o._ x.a.x.k.a.a.z.a.C.x.z.x.D.E.X.s k k k k k k k k k k k k k k k k D @.Y.Z.V.V.S.L.D.x.z.k.C.E.X.T k k x k k k x k ",
"< n l E t 2 D ` c c j c c j c c k : : j a D 1 @ k n k x k k k l k k k k k k k l @ < u a - > > > j - : j a z 5 @ k k k k k k k k ",
"= k x Q n m n z k k k k k k k k x k n ! F a z n k x k k k k k k k k k k k k k k < : x x v v M J x n n x D / z n k k k k k k k k ",
"< j W x k n 2 3 k n n n k n k n x k 4 < t k c ; k k k k k k k k k k k k k k k k v b v 4 : t E P x k n 4 n j : : k k k k k k k k ",
"n j W n n c k 5 Q j Q Q z j E z / Q ! x 4 : j W k k k k k k k k k k k k k k k k -.s z z k 4 < < I z z W k : j ; k k l k k k k l ",
"M E W b l u j b 4 4 4 4 4 : n : 4 k k n 5 > < n k k k k k k l k k k k x k n k x e $ $ 4 k x B v 4 k n n < 1 4 n k k k k k k k k ",
"l E t b v P I B x x x x x l x x 4 n D x l n x / k l k k k k k k k k k k k k k k B B n n ! Q W y < B x D l n x / k k k k k k k k "
};
